<?xml version="1.0"?>
<svg xmlns="http://www.w3.org/2000/svg" xmlns:xlink="http://www.w3.org/1999/xlink" xmlns:svgjs="http://svgjs.com/svgjs" version="1.1" width="512" height="512" x="0" y="0" viewBox="0 0 512 512" style="enable-background:new 0 0 512 512" xml:space="preserve" class=""><g><path xmlns="http://www.w3.org/2000/svg" d="M105,290.9a6,6,0,0,0,6-6v-6.3a6,6,0,0,0-12,0v6.3A6,6,0,0,0,105,290.9Z" fill="#ffffff" data-original="#000000" style="" class=""/><path xmlns="http://www.w3.org/2000/svg" d="M105,374.9a6,6,0,0,0,6-6v-65a6,6,0,0,0-12,0v65A6,6,0,0,0,105,374.9Z" fill="#ffffff" data-original="#000000" style="" class=""/><path xmlns="http://www.w3.org/2000/svg" d="M113.483,403h13.479a25.417,25.417,0,0,0,22.086,13.7A25.721,25.721,0,0,0,175,390.793V263.454a25.4,25.4,0,0,0-25.952-25.534c-9.644.166-17.89,6.08-22.086,14.08H126V193.474c0-71.7,58.3-130.039,130-130.039s130,58.336,130,130.039V252h-.522c-4.29-9-12.873-14.084-22.794-14.084A25.561,25.561,0,0,0,337,263.454V390.793A25.73,25.73,0,0,0,385.478,403h13.039a75.347,75.347,0,0,0,16.976-1.949C411.456,434.387,382.75,461,348.027,461H291v-9.508c0-3.313-2.564-6.492-5.877-6.492H236.852a22,22,0,0,0,0,44h48.271A5.821,5.821,0,0,0,291,483.089V473h57.027A80.161,80.161,0,0,0,427.9,397.048,75.494,75.494,0,0,0,425,256.808V192c0-93.233-75.766-169.084-169-169.084S87,98.762,87,192v64.813A75.495,75.495,0,0,0,113.483,403ZM376,390.793a13.5,13.5,0,1,1-27,0V263.454a13.5,13.5,0,1,1,27,0ZM250,477H236.852a10,10,0,0,1,0-20H250Zm29,0H262V457h17ZM462.011,327.5A63.572,63.572,0,0,1,398.517,391H388V264h10.517A63.571,63.571,0,0,1,462.011,327.5ZM99,192c0-86.617,70.383-157.084,157-157.084S413,105.378,413,192v61.414A75.555,75.555,0,0,0,398.517,252H398V193.474c0-78.321-63.679-142.039-142-142.039S114,115.153,114,193.474V252h-.517A75.555,75.555,0,0,0,99,253.409ZM113.483,264H124v18a6,6,0,0,0,12,0V263.6a13.742,13.742,0,0,1,13.126-13.867A13.546,13.546,0,0,1,163,263.454V390.645a13.741,13.741,0,0,1-13.125,13.866A13.546,13.546,0,0,1,136,390.793V322a6,6,0,0,0-12,0v68.485c0,.044,0,.515,0,.515h-10.52a63.5,63.5,0,0,1,0-127Z" fill="#ffffff" data-original="#000000" style="" class=""/></g></svg>
